<mxfile host="app.diagrams.net" agent="Mozilla/5.0 (Windows NT 10.0; Win64; x64) AppleWebKit/537.36 (KHTML, like Gecko) Chrome/135.0.0.0 Safari/537.36 Edg/135.0.0.0" version="26.2.13">
  <diagram name="Page-1" id="fIpuFZ28IpZnisWi6JUr">
    <mxGraphModel dx="894" dy="573" grid="1" gridSize="10" guides="1" tooltips="1" connect="1" arrows="1" fold="1" page="1" pageScale="1" pageWidth="850" pageHeight="1100" math="0" shadow="0">
      <root>
        <mxCell id="0" />
        <mxCell id="1" parent="0" />
        <mxCell id="QlK_rRdGWintecJ_bvhY-18" value="" style="edgeStyle=orthogonalEdgeStyle;rounded=0;orthogonalLoop=1;jettySize=auto;html=1;" edge="1" parent="1" source="QlK_rRdGWintecJ_bvhY-1" target="QlK_rRdGWintecJ_bvhY-2">
          <mxGeometry relative="1" as="geometry" />
        </mxCell>
        <mxCell id="QlK_rRdGWintecJ_bvhY-1" value="&lt;b&gt;Start&amp;nbsp;&lt;/b&gt;&lt;div&gt;temp_predicton function&lt;/div&gt;" style="ellipse;whiteSpace=wrap;html=1;" vertex="1" parent="1">
          <mxGeometry x="350" y="410" width="120" height="80" as="geometry" />
        </mxCell>
        <mxCell id="QlK_rRdGWintecJ_bvhY-19" value="" style="edgeStyle=orthogonalEdgeStyle;rounded=0;orthogonalLoop=1;jettySize=auto;html=1;" edge="1" parent="1" source="QlK_rRdGWintecJ_bvhY-2" target="QlK_rRdGWintecJ_bvhY-3">
          <mxGeometry relative="1" as="geometry" />
        </mxCell>
        <mxCell id="QlK_rRdGWintecJ_bvhY-2" value="&lt;b&gt;Initialization &lt;/b&gt;(Connections, Pins, Plotting, Buffers, LEDs out)" style="rounded=0;whiteSpace=wrap;html=1;" vertex="1" parent="1">
          <mxGeometry x="350" y="520" width="120" height="60" as="geometry" />
        </mxCell>
        <mxCell id="QlK_rRdGWintecJ_bvhY-20" value="" style="edgeStyle=orthogonalEdgeStyle;rounded=0;orthogonalLoop=1;jettySize=auto;html=1;" edge="1" parent="1" source="QlK_rRdGWintecJ_bvhY-3" target="QlK_rRdGWintecJ_bvhY-4">
          <mxGeometry relative="1" as="geometry" />
        </mxCell>
        <mxCell id="QlK_rRdGWintecJ_bvhY-3" value="&lt;div&gt;&lt;span style=&quot;background-color: transparent; color: light-dark(rgb(0, 0, 0), rgb(255, 255, 255));&quot;&gt;&lt;b&gt;Read Temperature&lt;/b&gt;&lt;/span&gt;&lt;/div&gt;&lt;div&gt;&lt;span style=&quot;background-color: transparent; color: light-dark(rgb(0, 0, 0), rgb(255, 255, 255));&quot;&gt;Read current temperature T&lt;/span&gt;&lt;/div&gt;" style="rounded=0;whiteSpace=wrap;html=1;" vertex="1" parent="1">
          <mxGeometry x="350" y="620" width="120" height="60" as="geometry" />
        </mxCell>
        <mxCell id="QlK_rRdGWintecJ_bvhY-21" value="" style="edgeStyle=orthogonalEdgeStyle;rounded=0;orthogonalLoop=1;jettySize=auto;html=1;" edge="1" parent="1" source="QlK_rRdGWintecJ_bvhY-4" target="QlK_rRdGWintecJ_bvhY-5">
          <mxGeometry relative="1" as="geometry" />
        </mxCell>
        <mxCell id="QlK_rRdGWintecJ_bvhY-4" value="&lt;b&gt;Stored Data&lt;/b&gt;&lt;div&gt;Store T and time t in a buffer&lt;/div&gt;" style="rounded=0;whiteSpace=wrap;html=1;" vertex="1" parent="1">
          <mxGeometry x="350" y="710" width="120" height="60" as="geometry" />
        </mxCell>
        <mxCell id="QlK_rRdGWintecJ_bvhY-22" value="" style="edgeStyle=orthogonalEdgeStyle;rounded=0;orthogonalLoop=1;jettySize=auto;html=1;" edge="1" parent="1" source="QlK_rRdGWintecJ_bvhY-5" target="QlK_rRdGWintecJ_bvhY-6">
          <mxGeometry relative="1" as="geometry" />
        </mxCell>
        <mxCell id="QlK_rRdGWintecJ_bvhY-5" value="&lt;b&gt;Calculate the rate of change&lt;/b&gt;&lt;div&gt;Calculate the rate of change R (°C/min) (using the historical data window, accounting for noise)&lt;/div&gt;" style="rounded=0;whiteSpace=wrap;html=1;" vertex="1" parent="1">
          <mxGeometry x="315" y="800" width="190" height="60" as="geometry" />
        </mxCell>
        <mxCell id="QlK_rRdGWintecJ_bvhY-23" value="" style="edgeStyle=orthogonalEdgeStyle;rounded=0;orthogonalLoop=1;jettySize=auto;html=1;" edge="1" parent="1" source="QlK_rRdGWintecJ_bvhY-6" target="QlK_rRdGWintecJ_bvhY-8">
          <mxGeometry relative="1" as="geometry" />
        </mxCell>
        <mxCell id="QlK_rRdGWintecJ_bvhY-6" value="&lt;b&gt;predicted temperature:&lt;/b&gt;&lt;div&gt;&lt;span style=&quot;background-color: transparent; color: light-dark(rgb(0, 0, 0), rgb(255, 255, 255));&quot;&gt;Predicted:&lt;/span&gt;T_pred = T + R * 5 minutes&lt;/div&gt;" style="rounded=0;whiteSpace=wrap;html=1;" vertex="1" parent="1">
          <mxGeometry x="305" y="890" width="210" height="60" as="geometry" />
        </mxCell>
        <mxCell id="QlK_rRdGWintecJ_bvhY-24" value="" style="edgeStyle=orthogonalEdgeStyle;rounded=0;orthogonalLoop=1;jettySize=auto;html=1;" edge="1" parent="1" source="QlK_rRdGWintecJ_bvhY-8" target="QlK_rRdGWintecJ_bvhY-9">
          <mxGeometry relative="1" as="geometry" />
        </mxCell>
        <mxCell id="QlK_rRdGWintecJ_bvhY-8" value="&lt;b&gt;Output:&lt;/b&gt;&lt;div&gt;T、R、T_pred&lt;/div&gt;" style="shape=parallelogram;perimeter=parallelogramPerimeter;whiteSpace=wrap;html=1;fixedSize=1;" vertex="1" parent="1">
          <mxGeometry x="350" y="980" width="120" height="60" as="geometry" />
        </mxCell>
        <mxCell id="QlK_rRdGWintecJ_bvhY-25" value="" style="edgeStyle=orthogonalEdgeStyle;rounded=0;orthogonalLoop=1;jettySize=auto;html=1;" edge="1" parent="1" source="QlK_rRdGWintecJ_bvhY-9" target="QlK_rRdGWintecJ_bvhY-10">
          <mxGeometry relative="1" as="geometry" />
        </mxCell>
        <mxCell id="QlK_rRdGWintecJ_bvhY-9" value="&lt;div&gt;&lt;span style=&quot;background-color: transparent;&quot;&gt;&lt;b&gt;Updated mapping&lt;/b&gt;&lt;/span&gt;&lt;/div&gt;&lt;div&gt;&lt;span style=&quot;background-color: transparent; color: light-dark(rgb(0, 0, 0), rgb(255, 255, 255));&quot;&gt;Updated temperature graphs&lt;/span&gt;&lt;/div&gt;" style="rounded=0;whiteSpace=wrap;html=1;" vertex="1" parent="1">
          <mxGeometry x="325" y="1070" width="170" height="60" as="geometry" />
        </mxCell>
        <mxCell id="QlK_rRdGWintecJ_bvhY-26" value="" style="edgeStyle=orthogonalEdgeStyle;rounded=0;orthogonalLoop=1;jettySize=auto;html=1;" edge="1" parent="1" source="QlK_rRdGWintecJ_bvhY-10" target="QlK_rRdGWintecJ_bvhY-12">
          <mxGeometry relative="1" as="geometry" />
        </mxCell>
        <mxCell id="QlK_rRdGWintecJ_bvhY-32" style="edgeStyle=orthogonalEdgeStyle;rounded=0;orthogonalLoop=1;jettySize=auto;html=1;entryX=0;entryY=0.5;entryDx=0;entryDy=0;" edge="1" parent="1" source="QlK_rRdGWintecJ_bvhY-10" target="QlK_rRdGWintecJ_bvhY-11">
          <mxGeometry relative="1" as="geometry" />
        </mxCell>
        <mxCell id="QlK_rRdGWintecJ_bvhY-10" value="&lt;b&gt;Judgmental rate of change (major decision)&lt;/b&gt;&lt;div&gt;Is R &amp;gt; +4 °C/min?&lt;/div&gt;" style="rhombus;whiteSpace=wrap;html=1;" vertex="1" parent="1">
          <mxGeometry x="232.5" y="1160" width="355" height="90" as="geometry" />
        </mxCell>
        <mxCell id="QlK_rRdGWintecJ_bvhY-42" style="edgeStyle=orthogonalEdgeStyle;rounded=0;orthogonalLoop=1;jettySize=auto;html=1;entryX=0.5;entryY=1;entryDx=0;entryDy=0;" edge="1" parent="1" source="QlK_rRdGWintecJ_bvhY-11" target="QlK_rRdGWintecJ_bvhY-16">
          <mxGeometry relative="1" as="geometry">
            <Array as="points">
              <mxPoint x="860" y="1205" />
              <mxPoint x="860" y="1650" />
              <mxPoint x="410" y="1650" />
            </Array>
          </mxGeometry>
        </mxCell>
        <mxCell id="QlK_rRdGWintecJ_bvhY-11" value="Red light on, green/yellow light off" style="rounded=0;whiteSpace=wrap;html=1;" vertex="1" parent="1">
          <mxGeometry x="710" y="1175" width="120" height="60" as="geometry" />
        </mxCell>
        <mxCell id="QlK_rRdGWintecJ_bvhY-27" value="" style="edgeStyle=orthogonalEdgeStyle;rounded=0;orthogonalLoop=1;jettySize=auto;html=1;" edge="1" parent="1" source="QlK_rRdGWintecJ_bvhY-12" target="QlK_rRdGWintecJ_bvhY-15">
          <mxGeometry relative="1" as="geometry" />
        </mxCell>
        <mxCell id="QlK_rRdGWintecJ_bvhY-31" style="edgeStyle=orthogonalEdgeStyle;rounded=0;orthogonalLoop=1;jettySize=auto;html=1;" edge="1" parent="1" source="QlK_rRdGWintecJ_bvhY-12" target="QlK_rRdGWintecJ_bvhY-14">
          <mxGeometry relative="1" as="geometry" />
        </mxCell>
        <mxCell id="QlK_rRdGWintecJ_bvhY-12" value="&lt;b&gt;Judgmental rate of change (minor decision)&lt;/b&gt;&lt;div&gt;Is R &amp;lt; -4 °C/min?&lt;/div&gt;" style="rhombus;whiteSpace=wrap;html=1;" vertex="1" parent="1">
          <mxGeometry x="242.5" y="1290" width="335" height="100" as="geometry" />
        </mxCell>
        <mxCell id="QlK_rRdGWintecJ_bvhY-14" value="Yellow light on, green/red light off" style="rounded=0;whiteSpace=wrap;html=1;" vertex="1" parent="1">
          <mxGeometry x="710" y="1310" width="120" height="60" as="geometry" />
        </mxCell>
        <mxCell id="QlK_rRdGWintecJ_bvhY-28" value="" style="edgeStyle=orthogonalEdgeStyle;rounded=0;orthogonalLoop=1;jettySize=auto;html=1;" edge="1" parent="1" source="QlK_rRdGWintecJ_bvhY-15" target="QlK_rRdGWintecJ_bvhY-16">
          <mxGeometry relative="1" as="geometry" />
        </mxCell>
        <mxCell id="QlK_rRdGWintecJ_bvhY-15" value="&lt;b&gt;Rate stabilization&lt;/b&gt;&lt;div&gt;Green light on, yellow/red light off&lt;/div&gt;" style="rounded=0;whiteSpace=wrap;html=1;" vertex="1" parent="1">
          <mxGeometry x="320" y="1440" width="180" height="60" as="geometry" />
        </mxCell>
        <mxCell id="QlK_rRdGWintecJ_bvhY-40" style="edgeStyle=orthogonalEdgeStyle;rounded=0;orthogonalLoop=1;jettySize=auto;html=1;entryX=0;entryY=0.5;entryDx=0;entryDy=0;" edge="1" parent="1" source="QlK_rRdGWintecJ_bvhY-16" target="QlK_rRdGWintecJ_bvhY-3">
          <mxGeometry relative="1" as="geometry">
            <Array as="points">
              <mxPoint x="130" y="1580" />
              <mxPoint x="130" y="650" />
            </Array>
          </mxGeometry>
        </mxCell>
        <mxCell id="QlK_rRdGWintecJ_bvhY-16" value="&lt;b&gt;Control cycle rate&lt;/b&gt;&lt;div&gt;Pause to maintain the cycle for approximately 1 second&lt;/div&gt;" style="rounded=0;whiteSpace=wrap;html=1;" vertex="1" parent="1">
          <mxGeometry x="260" y="1550" width="300" height="60" as="geometry" />
        </mxCell>
        <mxCell id="QlK_rRdGWintecJ_bvhY-33" value="Yes" style="text;strokeColor=none;align=center;fillColor=none;html=1;verticalAlign=middle;whiteSpace=wrap;rounded=0;" vertex="1" parent="1">
          <mxGeometry x="610" y="1180" width="60" height="30" as="geometry" />
        </mxCell>
        <mxCell id="QlK_rRdGWintecJ_bvhY-35" value="Yes" style="text;strokeColor=none;align=center;fillColor=none;html=1;verticalAlign=middle;whiteSpace=wrap;rounded=0;" vertex="1" parent="1">
          <mxGeometry x="610" y="1320" width="60" height="30" as="geometry" />
        </mxCell>
        <mxCell id="QlK_rRdGWintecJ_bvhY-37" value="No" style="text;strokeColor=none;align=center;fillColor=none;html=1;verticalAlign=middle;whiteSpace=wrap;rounded=0;" vertex="1" parent="1">
          <mxGeometry x="395" y="1250" width="60" height="30" as="geometry" />
        </mxCell>
        <mxCell id="QlK_rRdGWintecJ_bvhY-38" value="No" style="text;strokeColor=none;align=center;fillColor=none;html=1;verticalAlign=middle;whiteSpace=wrap;rounded=0;" vertex="1" parent="1">
          <mxGeometry x="395" y="1400" width="60" height="30" as="geometry" />
        </mxCell>
        <mxCell id="QlK_rRdGWintecJ_bvhY-41" style="edgeStyle=orthogonalEdgeStyle;rounded=0;orthogonalLoop=1;jettySize=auto;html=1;entryX=1.001;entryY=0.345;entryDx=0;entryDy=0;entryPerimeter=0;" edge="1" parent="1" source="QlK_rRdGWintecJ_bvhY-14" target="QlK_rRdGWintecJ_bvhY-16">
          <mxGeometry relative="1" as="geometry">
            <Array as="points">
              <mxPoint x="770" y="1580" />
              <mxPoint x="560" y="1580" />
            </Array>
          </mxGeometry>
        </mxCell>
        <mxCell id="QlK_rRdGWintecJ_bvhY-43" value="While Loop" style="text;strokeColor=none;align=center;fillColor=none;html=1;verticalAlign=middle;whiteSpace=wrap;rounded=0;" vertex="1" parent="1">
          <mxGeometry x="120" y="1250" width="60" height="30" as="geometry" />
        </mxCell>
      </root>
    </mxGraphModel>
  </diagram>
</mxfile>
